<svg width="923" height="340" viewBox="0 0 923 340" fill="none" xmlns="http://www.w3.org/2000/svg">
<path d="M803 180L803 50C803 33.4315 789.569 20 773 20L632 20L491 20C474.431 20 461 33.4314 461 50L461 180" stroke="black" stroke-width="2"/>
<path d="M485 157L461 181L437 157" stroke="black" stroke-width="2"/>
<circle cx="803" cy="180" r="5" transform="rotate(90 803 180)" fill="black"/>
<rect y="180" width="240" height="80" fill="black"/>
<path d="M102.727 227.16V229H94.1953V227.16H102.727ZM94.6406 211.938V229H92.3789V211.938H94.6406ZM104.414 222.801V222.531C104.414 221.617 104.547 220.77 104.812 219.988C105.078 219.199 105.461 218.516 105.961 217.938C106.461 217.352 107.066 216.898 107.777 216.578C108.488 216.25 109.285 216.086 110.168 216.086C111.059 216.086 111.859 216.25 112.57 216.578C113.289 216.898 113.898 217.352 114.398 217.938C114.906 218.516 115.293 219.199 115.559 219.988C115.824 220.77 115.957 221.617 115.957 222.531V222.801C115.957 223.715 115.824 224.562 115.559 225.344C115.293 226.125 114.906 226.809 114.398 227.395C113.898 227.973 113.293 228.426 112.582 228.754C111.879 229.074 111.082 229.234 110.191 229.234C109.301 229.234 108.5 229.074 107.789 228.754C107.078 228.426 106.469 227.973 105.961 227.395C105.461 226.809 105.078 226.125 104.812 225.344C104.547 224.562 104.414 223.715 104.414 222.801ZM106.582 222.531V222.801C106.582 223.434 106.656 224.031 106.805 224.594C106.953 225.148 107.176 225.641 107.473 226.07C107.777 226.5 108.156 226.84 108.609 227.09C109.062 227.332 109.59 227.453 110.191 227.453C110.785 227.453 111.305 227.332 111.75 227.09C112.203 226.84 112.578 226.5 112.875 226.07C113.172 225.641 113.395 225.148 113.543 224.594C113.699 224.031 113.777 223.434 113.777 222.801V222.531C113.777 221.906 113.699 221.316 113.543 220.762C113.395 220.199 113.168 219.703 112.863 219.273C112.566 218.836 112.191 218.492 111.738 218.242C111.293 217.992 110.77 217.867 110.168 217.867C109.574 217.867 109.051 217.992 108.598 218.242C108.152 218.492 107.777 218.836 107.473 219.273C107.176 219.703 106.953 220.199 106.805 220.762C106.656 221.316 106.582 221.906 106.582 222.531ZM126.891 216.32H128.859V228.73C128.859 229.848 128.633 230.801 128.18 231.59C127.727 232.379 127.094 232.977 126.281 233.383C125.477 233.797 124.547 234.004 123.492 234.004C123.055 234.004 122.539 233.934 121.945 233.793C121.359 233.66 120.781 233.43 120.211 233.102C119.648 232.781 119.176 232.348 118.793 231.801L119.93 230.512C120.461 231.152 121.016 231.598 121.594 231.848C122.18 232.098 122.758 232.223 123.328 232.223C124.016 232.223 124.609 232.094 125.109 231.836C125.609 231.578 125.996 231.195 126.27 230.688C126.551 230.188 126.691 229.57 126.691 228.836V219.109L126.891 216.32ZM118.16 222.801V222.555C118.16 221.586 118.273 220.707 118.5 219.918C118.734 219.121 119.066 218.438 119.496 217.867C119.934 217.297 120.461 216.859 121.078 216.555C121.695 216.242 122.391 216.086 123.164 216.086C123.961 216.086 124.656 216.227 125.25 216.508C125.852 216.781 126.359 217.184 126.773 217.715C127.195 218.238 127.527 218.871 127.77 219.613C128.012 220.355 128.18 221.195 128.273 222.133V223.211C128.188 224.141 128.02 224.977 127.77 225.719C127.527 226.461 127.195 227.094 126.773 227.617C126.359 228.141 125.852 228.543 125.25 228.824C124.648 229.098 123.945 229.234 123.141 229.234C122.383 229.234 121.695 229.074 121.078 228.754C120.469 228.434 119.945 227.984 119.508 227.406C119.07 226.828 118.734 226.148 118.5 225.367C118.273 224.578 118.16 223.723 118.16 222.801ZM120.328 222.555V222.801C120.328 223.434 120.391 224.027 120.516 224.582C120.648 225.137 120.848 225.625 121.113 226.047C121.387 226.469 121.734 226.801 122.156 227.043C122.578 227.277 123.082 227.395 123.668 227.395C124.387 227.395 124.98 227.242 125.449 226.938C125.918 226.633 126.289 226.23 126.562 225.73C126.844 225.23 127.062 224.688 127.219 224.102V221.277C127.133 220.848 127 220.434 126.82 220.035C126.648 219.629 126.422 219.27 126.141 218.957C125.867 218.637 125.527 218.383 125.121 218.195C124.715 218.008 124.238 217.914 123.691 217.914C123.098 217.914 122.586 218.039 122.156 218.289C121.734 218.531 121.387 218.867 121.113 219.297C120.848 219.719 120.648 220.211 120.516 220.773C120.391 221.328 120.328 221.922 120.328 222.555ZM134.508 216.32V229H132.328V216.32H134.508ZM132.164 212.957C132.164 212.605 132.27 212.309 132.48 212.066C132.699 211.824 133.02 211.703 133.441 211.703C133.855 211.703 134.172 211.824 134.391 212.066C134.617 212.309 134.73 212.605 134.73 212.957C134.73 213.293 134.617 213.582 134.391 213.824C134.172 214.059 133.855 214.176 133.441 214.176C133.02 214.176 132.699 214.059 132.48 213.824C132.27 213.582 132.164 213.293 132.164 212.957ZM140.156 219.027V229H137.988V216.32H140.039L140.156 219.027ZM139.641 222.18L138.738 222.145C138.746 221.277 138.875 220.477 139.125 219.742C139.375 219 139.727 218.355 140.18 217.809C140.633 217.262 141.172 216.84 141.797 216.543C142.43 216.238 143.129 216.086 143.895 216.086C144.52 216.086 145.082 216.172 145.582 216.344C146.082 216.508 146.508 216.773 146.859 217.141C147.219 217.508 147.492 217.984 147.68 218.57C147.867 219.148 147.961 219.855 147.961 220.691V229H145.781V220.668C145.781 220.004 145.684 219.473 145.488 219.074C145.293 218.668 145.008 218.375 144.633 218.195C144.258 218.008 143.797 217.914 143.25 217.914C142.711 217.914 142.219 218.027 141.773 218.254C141.336 218.48 140.957 218.793 140.637 219.191C140.324 219.59 140.078 220.047 139.898 220.562C139.727 221.07 139.641 221.609 139.641 222.18Z" fill="white"/>
<rect x="341" y="180" width="240" height="80" fill="black"/>
<path d="M426.875 224.688C426.875 224.289 426.812 223.938 426.688 223.633C426.57 223.32 426.359 223.039 426.055 222.789C425.758 222.539 425.344 222.301 424.812 222.074C424.289 221.848 423.625 221.617 422.82 221.383C421.977 221.133 421.215 220.855 420.535 220.551C419.855 220.238 419.273 219.883 418.789 219.484C418.305 219.086 417.934 218.629 417.676 218.113C417.418 217.598 417.289 217.008 417.289 216.344C417.289 215.68 417.426 215.066 417.699 214.504C417.973 213.941 418.363 213.453 418.871 213.039C419.387 212.617 420 212.289 420.711 212.055C421.422 211.82 422.215 211.703 423.09 211.703C424.371 211.703 425.457 211.949 426.348 212.441C427.246 212.926 427.93 213.562 428.398 214.352C428.867 215.133 429.102 215.969 429.102 216.859H426.852C426.852 216.219 426.715 215.652 426.441 215.16C426.168 214.66 425.754 214.27 425.199 213.988C424.645 213.699 423.941 213.555 423.09 213.555C422.285 213.555 421.621 213.676 421.098 213.918C420.574 214.16 420.184 214.488 419.926 214.902C419.676 215.316 419.551 215.789 419.551 216.32C419.551 216.68 419.625 217.008 419.773 217.305C419.93 217.594 420.168 217.863 420.488 218.113C420.816 218.363 421.23 218.594 421.73 218.805C422.238 219.016 422.844 219.219 423.547 219.414C424.516 219.688 425.352 219.992 426.055 220.328C426.758 220.664 427.336 221.043 427.789 221.465C428.25 221.879 428.59 222.352 428.809 222.883C429.035 223.406 429.148 224 429.148 224.664C429.148 225.359 429.008 225.988 428.727 226.551C428.445 227.113 428.043 227.594 427.52 227.992C426.996 228.391 426.367 228.699 425.633 228.918C424.906 229.129 424.094 229.234 423.195 229.234C422.406 229.234 421.629 229.125 420.863 228.906C420.105 228.688 419.414 228.359 418.789 227.922C418.172 227.484 417.676 226.945 417.301 226.305C416.934 225.656 416.75 224.906 416.75 224.055H419C419 224.641 419.113 225.145 419.34 225.566C419.566 225.98 419.875 226.324 420.266 226.598C420.664 226.871 421.113 227.074 421.613 227.207C422.121 227.332 422.648 227.395 423.195 227.395C423.984 227.395 424.652 227.285 425.199 227.066C425.746 226.848 426.16 226.535 426.441 226.129C426.73 225.723 426.875 225.242 426.875 224.688ZM436.777 227.453C437.293 227.453 437.77 227.348 438.207 227.137C438.645 226.926 439.004 226.637 439.285 226.27C439.566 225.895 439.727 225.469 439.766 224.992H441.828C441.789 225.742 441.535 226.441 441.066 227.09C440.605 227.73 440 228.25 439.25 228.648C438.5 229.039 437.676 229.234 436.777 229.234C435.824 229.234 434.992 229.066 434.281 228.73C433.578 228.395 432.992 227.934 432.523 227.348C432.062 226.762 431.715 226.09 431.48 225.332C431.254 224.566 431.141 223.758 431.141 222.906V222.414C431.141 221.562 431.254 220.758 431.48 220C431.715 219.234 432.062 218.559 432.523 217.973C432.992 217.387 433.578 216.926 434.281 216.59C434.992 216.254 435.824 216.086 436.777 216.086C437.77 216.086 438.637 216.289 439.379 216.695C440.121 217.094 440.703 217.641 441.125 218.336C441.555 219.023 441.789 219.805 441.828 220.68H439.766C439.727 220.156 439.578 219.684 439.32 219.262C439.07 218.84 438.727 218.504 438.289 218.254C437.859 217.996 437.355 217.867 436.777 217.867C436.113 217.867 435.555 218 435.102 218.266C434.656 218.523 434.301 218.875 434.035 219.32C433.777 219.758 433.59 220.246 433.473 220.785C433.363 221.316 433.309 221.859 433.309 222.414V222.906C433.309 223.461 433.363 224.008 433.473 224.547C433.582 225.086 433.766 225.574 434.023 226.012C434.289 226.449 434.645 226.801 435.09 227.066C435.543 227.324 436.105 227.453 436.777 227.453ZM451.742 226.832V220.305C451.742 219.805 451.641 219.371 451.438 219.004C451.242 218.629 450.945 218.34 450.547 218.137C450.148 217.934 449.656 217.832 449.07 217.832C448.523 217.832 448.043 217.926 447.629 218.113C447.223 218.301 446.902 218.547 446.668 218.852C446.441 219.156 446.328 219.484 446.328 219.836H444.16C444.16 219.383 444.277 218.934 444.512 218.488C444.746 218.043 445.082 217.641 445.52 217.281C445.965 216.914 446.496 216.625 447.113 216.414C447.738 216.195 448.434 216.086 449.199 216.086C450.121 216.086 450.934 216.242 451.637 216.555C452.348 216.867 452.902 217.34 453.301 217.973C453.707 218.598 453.91 219.383 453.91 220.328V226.234C453.91 226.656 453.945 227.105 454.016 227.582C454.094 228.059 454.207 228.469 454.355 228.812V229H452.094C451.984 228.75 451.898 228.418 451.836 228.004C451.773 227.582 451.742 227.191 451.742 226.832ZM452.117 221.312L452.141 222.836H449.949C449.332 222.836 448.781 222.887 448.297 222.988C447.812 223.082 447.406 223.227 447.078 223.422C446.75 223.617 446.5 223.863 446.328 224.16C446.156 224.449 446.07 224.789 446.07 225.18C446.07 225.578 446.16 225.941 446.34 226.27C446.52 226.598 446.789 226.859 447.148 227.055C447.516 227.242 447.965 227.336 448.496 227.336C449.16 227.336 449.746 227.195 450.254 226.914C450.762 226.633 451.164 226.289 451.461 225.883C451.766 225.477 451.93 225.082 451.953 224.699L452.879 225.742C452.824 226.07 452.676 226.434 452.434 226.832C452.191 227.23 451.867 227.613 451.461 227.98C451.062 228.34 450.586 228.641 450.031 228.883C449.484 229.117 448.867 229.234 448.18 229.234C447.32 229.234 446.566 229.066 445.918 228.73C445.277 228.395 444.777 227.945 444.418 227.383C444.066 226.812 443.891 226.176 443.891 225.473C443.891 224.793 444.023 224.195 444.289 223.68C444.555 223.156 444.938 222.723 445.438 222.379C445.938 222.027 446.539 221.762 447.242 221.582C447.945 221.402 448.73 221.312 449.598 221.312H452.117ZM459.488 219.027V229H457.32V216.32H459.371L459.488 219.027ZM458.973 222.18L458.07 222.145C458.078 221.277 458.207 220.477 458.457 219.742C458.707 219 459.059 218.355 459.512 217.809C459.965 217.262 460.504 216.84 461.129 216.543C461.762 216.238 462.461 216.086 463.227 216.086C463.852 216.086 464.414 216.172 464.914 216.344C465.414 216.508 465.84 216.773 466.191 217.141C466.551 217.508 466.824 217.984 467.012 218.57C467.199 219.148 467.293 219.855 467.293 220.691V229H465.113V220.668C465.113 220.004 465.016 219.473 464.82 219.074C464.625 218.668 464.34 218.375 463.965 218.195C463.59 218.008 463.129 217.914 462.582 217.914C462.043 217.914 461.551 218.027 461.105 218.254C460.668 218.48 460.289 218.793 459.969 219.191C459.656 219.59 459.41 220.047 459.23 220.562C459.059 221.07 458.973 221.609 458.973 222.18ZM485.621 227.043L489.957 230.477L488.434 231.883L484.168 228.496L485.621 227.043ZM489.898 219.93V221.008C489.898 222.289 489.738 223.438 489.418 224.453C489.098 225.469 488.637 226.332 488.035 227.043C487.434 227.754 486.711 228.297 485.867 228.672C485.031 229.047 484.094 229.234 483.055 229.234C482.047 229.234 481.121 229.047 480.277 228.672C479.441 228.297 478.715 227.754 478.098 227.043C477.488 226.332 477.016 225.469 476.68 224.453C476.344 223.438 476.176 222.289 476.176 221.008V219.93C476.176 218.648 476.34 217.504 476.668 216.496C477.004 215.48 477.477 214.617 478.086 213.906C478.695 213.188 479.418 212.641 480.254 212.266C481.098 211.891 482.023 211.703 483.031 211.703C484.07 211.703 485.012 211.891 485.855 212.266C486.699 212.641 487.422 213.188 488.023 213.906C488.625 214.617 489.086 215.48 489.406 216.496C489.734 217.504 489.898 218.648 489.898 219.93ZM487.66 221.008V219.906C487.66 218.891 487.555 217.992 487.344 217.211C487.141 216.43 486.84 215.773 486.441 215.242C486.043 214.711 485.559 214.309 484.988 214.035C484.418 213.762 483.766 213.625 483.031 213.625C482.336 213.625 481.703 213.762 481.133 214.035C480.57 214.309 480.086 214.711 479.68 215.242C479.273 215.773 478.961 216.43 478.742 217.211C478.523 217.992 478.414 218.891 478.414 219.906V221.008C478.414 222.031 478.523 222.938 478.742 223.727C478.961 224.508 479.273 225.168 479.68 225.707C480.094 226.238 480.586 226.641 481.156 226.914C481.727 227.188 482.359 227.324 483.055 227.324C483.789 227.324 484.441 227.188 485.012 226.914C485.582 226.641 486.062 226.238 486.453 225.707C486.852 225.168 487.152 224.508 487.355 223.727C487.559 222.938 487.66 222.031 487.66 221.008ZM493.391 211.938H499.039C500.32 211.938 501.402 212.133 502.285 212.523C503.176 212.914 503.852 213.492 504.312 214.258C504.781 215.016 505.016 215.949 505.016 217.059C505.016 217.84 504.855 218.555 504.535 219.203C504.223 219.844 503.77 220.391 503.176 220.844C502.59 221.289 501.887 221.621 501.066 221.84L500.434 222.086H495.125L495.102 220.246H499.109C499.922 220.246 500.598 220.105 501.137 219.824C501.676 219.535 502.082 219.148 502.355 218.664C502.629 218.18 502.766 217.645 502.766 217.059C502.766 216.402 502.637 215.828 502.379 215.336C502.121 214.844 501.715 214.465 501.16 214.199C500.613 213.926 499.906 213.789 499.039 213.789H495.652V229H493.391V211.938ZM503.363 229L499.215 221.266L501.57 221.254L505.777 228.859V229H503.363Z" fill="white"/>
<path d="M803 100L683 220L803 340L923 220L803 100Z" fill="#5A5A5A"/>
<path d="M763.332 224.688C763.332 224.289 763.27 223.938 763.145 223.633C763.027 223.32 762.816 223.039 762.512 222.789C762.215 222.539 761.801 222.301 761.27 222.074C760.746 221.848 760.082 221.617 759.277 221.383C758.434 221.133 757.672 220.855 756.992 220.551C756.312 220.238 755.73 219.883 755.246 219.484C754.762 219.086 754.391 218.629 754.133 218.113C753.875 217.598 753.746 217.008 753.746 216.344C753.746 215.68 753.883 215.066 754.156 214.504C754.43 213.941 754.82 213.453 755.328 213.039C755.844 212.617 756.457 212.289 757.168 212.055C757.879 211.82 758.672 211.703 759.547 211.703C760.828 211.703 761.914 211.949 762.805 212.441C763.703 212.926 764.387 213.562 764.855 214.352C765.324 215.133 765.559 215.969 765.559 216.859H763.309C763.309 216.219 763.172 215.652 762.898 215.16C762.625 214.66 762.211 214.27 761.656 213.988C761.102 213.699 760.398 213.555 759.547 213.555C758.742 213.555 758.078 213.676 757.555 213.918C757.031 214.16 756.641 214.488 756.383 214.902C756.133 215.316 756.008 215.789 756.008 216.32C756.008 216.68 756.082 217.008 756.23 217.305C756.387 217.594 756.625 217.863 756.945 218.113C757.273 218.363 757.688 218.594 758.188 218.805C758.695 219.016 759.301 219.219 760.004 219.414C760.973 219.688 761.809 219.992 762.512 220.328C763.215 220.664 763.793 221.043 764.246 221.465C764.707 221.879 765.047 222.352 765.266 222.883C765.492 223.406 765.605 224 765.605 224.664C765.605 225.359 765.465 225.988 765.184 226.551C764.902 227.113 764.5 227.594 763.977 227.992C763.453 228.391 762.824 228.699 762.09 228.918C761.363 229.129 760.551 229.234 759.652 229.234C758.863 229.234 758.086 229.125 757.32 228.906C756.562 228.688 755.871 228.359 755.246 227.922C754.629 227.484 754.133 226.945 753.758 226.305C753.391 225.656 753.207 224.906 753.207 224.055H755.457C755.457 224.641 755.57 225.145 755.797 225.566C756.023 225.98 756.332 226.324 756.723 226.598C757.121 226.871 757.57 227.074 758.07 227.207C758.578 227.332 759.105 227.395 759.652 227.395C760.441 227.395 761.109 227.285 761.656 227.066C762.203 226.848 762.617 226.535 762.898 226.129C763.188 225.723 763.332 225.242 763.332 224.688ZM775.918 226.07V216.32H778.098V229H776.023L775.918 226.07ZM776.328 223.398L777.23 223.375C777.23 224.219 777.141 225 776.961 225.719C776.789 226.43 776.508 227.047 776.117 227.57C775.727 228.094 775.215 228.504 774.582 228.801C773.949 229.09 773.18 229.234 772.273 229.234C771.656 229.234 771.09 229.145 770.574 228.965C770.066 228.785 769.629 228.508 769.262 228.133C768.895 227.758 768.609 227.27 768.406 226.668C768.211 226.066 768.113 225.344 768.113 224.5V216.32H770.281V224.523C770.281 225.094 770.344 225.566 770.469 225.941C770.602 226.309 770.777 226.602 770.996 226.82C771.223 227.031 771.473 227.18 771.746 227.266C772.027 227.352 772.316 227.395 772.613 227.395C773.535 227.395 774.266 227.219 774.805 226.867C775.344 226.508 775.73 226.027 775.965 225.426C776.207 224.816 776.328 224.141 776.328 223.398ZM786.477 227.453C786.992 227.453 787.469 227.348 787.906 227.137C788.344 226.926 788.703 226.637 788.984 226.27C789.266 225.895 789.426 225.469 789.465 224.992H791.527C791.488 225.742 791.234 226.441 790.766 227.09C790.305 227.73 789.699 228.25 788.949 228.648C788.199 229.039 787.375 229.234 786.477 229.234C785.523 229.234 784.691 229.066 783.98 228.73C783.277 228.395 782.691 227.934 782.223 227.348C781.762 226.762 781.414 226.09 781.18 225.332C780.953 224.566 780.84 223.758 780.84 222.906V222.414C780.84 221.562 780.953 220.758 781.18 220C781.414 219.234 781.762 218.559 782.223 217.973C782.691 217.387 783.277 216.926 783.98 216.59C784.691 216.254 785.523 216.086 786.477 216.086C787.469 216.086 788.336 216.289 789.078 216.695C789.82 217.094 790.402 217.641 790.824 218.336C791.254 219.023 791.488 219.805 791.527 220.68H789.465C789.426 220.156 789.277 219.684 789.02 219.262C788.77 218.84 788.426 218.504 787.988 218.254C787.559 217.996 787.055 217.867 786.477 217.867C785.812 217.867 785.254 218 784.801 218.266C784.355 218.523 784 218.875 783.734 219.32C783.477 219.758 783.289 220.246 783.172 220.785C783.062 221.316 783.008 221.859 783.008 222.414V222.906C783.008 223.461 783.062 224.008 783.172 224.547C783.281 225.086 783.465 225.574 783.723 226.012C783.988 226.449 784.344 226.801 784.789 227.066C785.242 227.324 785.805 227.453 786.477 227.453ZM799.039 227.453C799.555 227.453 800.031 227.348 800.469 227.137C800.906 226.926 801.266 226.637 801.547 226.27C801.828 225.895 801.988 225.469 802.027 224.992H804.09C804.051 225.742 803.797 226.441 803.328 227.09C802.867 227.73 802.262 228.25 801.512 228.648C800.762 229.039 799.938 229.234 799.039 229.234C798.086 229.234 797.254 229.066 796.543 228.73C795.84 228.395 795.254 227.934 794.785 227.348C794.324 226.762 793.977 226.09 793.742 225.332C793.516 224.566 793.402 223.758 793.402 222.906V222.414C793.402 221.562 793.516 220.758 793.742 220C793.977 219.234 794.324 218.559 794.785 217.973C795.254 217.387 795.84 216.926 796.543 216.59C797.254 216.254 798.086 216.086 799.039 216.086C800.031 216.086 800.898 216.289 801.641 216.695C802.383 217.094 802.965 217.641 803.387 218.336C803.816 219.023 804.051 219.805 804.09 220.68H802.027C801.988 220.156 801.84 219.684 801.582 219.262C801.332 218.84 800.988 218.504 800.551 218.254C800.121 217.996 799.617 217.867 799.039 217.867C798.375 217.867 797.816 218 797.363 218.266C796.918 218.523 796.562 218.875 796.297 219.32C796.039 219.758 795.852 220.246 795.734 220.785C795.625 221.316 795.57 221.859 795.57 222.414V222.906C795.57 223.461 795.625 224.008 795.734 224.547C795.844 225.086 796.027 225.574 796.285 226.012C796.551 226.449 796.906 226.801 797.352 227.066C797.805 227.324 798.367 227.453 799.039 227.453ZM811.789 229.234C810.906 229.234 810.105 229.086 809.387 228.789C808.676 228.484 808.062 228.059 807.547 227.512C807.039 226.965 806.648 226.316 806.375 225.566C806.102 224.816 805.965 223.996 805.965 223.105V222.613C805.965 221.582 806.117 220.664 806.422 219.859C806.727 219.047 807.141 218.359 807.664 217.797C808.188 217.234 808.781 216.809 809.445 216.52C810.109 216.23 810.797 216.086 811.508 216.086C812.414 216.086 813.195 216.242 813.852 216.555C814.516 216.867 815.059 217.305 815.48 217.867C815.902 218.422 816.215 219.078 816.418 219.836C816.621 220.586 816.723 221.406 816.723 222.297V223.27H807.254V221.5H814.555V221.336C814.523 220.773 814.406 220.227 814.203 219.695C814.008 219.164 813.695 218.727 813.266 218.383C812.836 218.039 812.25 217.867 811.508 217.867C811.016 217.867 810.562 217.973 810.148 218.184C809.734 218.387 809.379 218.691 809.082 219.098C808.785 219.504 808.555 220 808.391 220.586C808.227 221.172 808.145 221.848 808.145 222.613V223.105C808.145 223.707 808.227 224.273 808.391 224.805C808.562 225.328 808.809 225.789 809.129 226.188C809.457 226.586 809.852 226.898 810.312 227.125C810.781 227.352 811.312 227.465 811.906 227.465C812.672 227.465 813.32 227.309 813.852 226.996C814.383 226.684 814.848 226.266 815.246 225.742L816.559 226.785C816.285 227.199 815.938 227.594 815.516 227.969C815.094 228.344 814.574 228.648 813.957 228.883C813.348 229.117 812.625 229.234 811.789 229.234ZM826.637 225.637C826.637 225.324 826.566 225.035 826.426 224.77C826.293 224.496 826.016 224.25 825.594 224.031C825.18 223.805 824.555 223.609 823.719 223.445C823.016 223.297 822.379 223.121 821.809 222.918C821.246 222.715 820.766 222.469 820.367 222.18C819.977 221.891 819.676 221.551 819.465 221.16C819.254 220.77 819.148 220.312 819.148 219.789C819.148 219.289 819.258 218.816 819.477 218.371C819.703 217.926 820.02 217.531 820.426 217.188C820.84 216.844 821.336 216.574 821.914 216.379C822.492 216.184 823.137 216.086 823.848 216.086C824.863 216.086 825.73 216.266 826.449 216.625C827.168 216.984 827.719 217.465 828.102 218.066C828.484 218.66 828.676 219.32 828.676 220.047H826.508C826.508 219.695 826.402 219.355 826.191 219.027C825.988 218.691 825.688 218.414 825.289 218.195C824.898 217.977 824.418 217.867 823.848 217.867C823.246 217.867 822.758 217.961 822.383 218.148C822.016 218.328 821.746 218.559 821.574 218.84C821.41 219.121 821.328 219.418 821.328 219.73C821.328 219.965 821.367 220.176 821.445 220.363C821.531 220.543 821.68 220.711 821.891 220.867C822.102 221.016 822.398 221.156 822.781 221.289C823.164 221.422 823.652 221.555 824.246 221.688C825.285 221.922 826.141 222.203 826.812 222.531C827.484 222.859 827.984 223.262 828.312 223.738C828.641 224.215 828.805 224.793 828.805 225.473C828.805 226.027 828.688 226.535 828.453 226.996C828.227 227.457 827.895 227.855 827.457 228.191C827.027 228.52 826.512 228.777 825.91 228.965C825.316 229.145 824.648 229.234 823.906 229.234C822.789 229.234 821.844 229.035 821.07 228.637C820.297 228.238 819.711 227.723 819.312 227.09C818.914 226.457 818.715 225.789 818.715 225.086H820.895C820.926 225.68 821.098 226.152 821.41 226.504C821.723 226.848 822.105 227.094 822.559 227.242C823.012 227.383 823.461 227.453 823.906 227.453C824.5 227.453 824.996 227.375 825.395 227.219C825.801 227.062 826.109 226.848 826.32 226.574C826.531 226.301 826.637 225.988 826.637 225.637ZM839.035 225.637C839.035 225.324 838.965 225.035 838.824 224.77C838.691 224.496 838.414 224.25 837.992 224.031C837.578 223.805 836.953 223.609 836.117 223.445C835.414 223.297 834.777 223.121 834.207 222.918C833.645 222.715 833.164 222.469 832.766 222.18C832.375 221.891 832.074 221.551 831.863 221.16C831.652 220.77 831.547 220.312 831.547 219.789C831.547 219.289 831.656 218.816 831.875 218.371C832.102 217.926 832.418 217.531 832.824 217.188C833.238 216.844 833.734 216.574 834.312 216.379C834.891 216.184 835.535 216.086 836.246 216.086C837.262 216.086 838.129 216.266 838.848 216.625C839.566 216.984 840.117 217.465 840.5 218.066C840.883 218.66 841.074 219.32 841.074 220.047H838.906C838.906 219.695 838.801 219.355 838.59 219.027C838.387 218.691 838.086 218.414 837.688 218.195C837.297 217.977 836.816 217.867 836.246 217.867C835.645 217.867 835.156 217.961 834.781 218.148C834.414 218.328 834.145 218.559 833.973 218.84C833.809 219.121 833.727 219.418 833.727 219.73C833.727 219.965 833.766 220.176 833.844 220.363C833.93 220.543 834.078 220.711 834.289 220.867C834.5 221.016 834.797 221.156 835.18 221.289C835.562 221.422 836.051 221.555 836.645 221.688C837.684 221.922 838.539 222.203 839.211 222.531C839.883 222.859 840.383 223.262 840.711 223.738C841.039 224.215 841.203 224.793 841.203 225.473C841.203 226.027 841.086 226.535 840.852 226.996C840.625 227.457 840.293 227.855 839.855 228.191C839.426 228.52 838.91 228.777 838.309 228.965C837.715 229.145 837.047 229.234 836.305 229.234C835.188 229.234 834.242 229.035 833.469 228.637C832.695 228.238 832.109 227.723 831.711 227.09C831.312 226.457 831.113 225.789 831.113 225.086H833.293C833.324 225.68 833.496 226.152 833.809 226.504C834.121 226.848 834.504 227.094 834.957 227.242C835.41 227.383 835.859 227.453 836.305 227.453C836.898 227.453 837.395 227.375 837.793 227.219C838.199 227.062 838.508 226.848 838.719 226.574C838.93 226.301 839.035 225.988 839.035 225.637ZM848.762 224.195H846.582C846.59 223.445 846.656 222.832 846.781 222.355C846.914 221.871 847.129 221.43 847.426 221.031C847.723 220.633 848.117 220.18 848.609 219.672C848.969 219.305 849.297 218.961 849.594 218.641C849.898 218.312 850.145 217.961 850.332 217.586C850.52 217.203 850.613 216.746 850.613 216.215C850.613 215.676 850.516 215.211 850.32 214.82C850.133 214.43 849.852 214.129 849.477 213.918C849.109 213.707 848.652 213.602 848.105 213.602C847.652 213.602 847.223 213.684 846.816 213.848C846.41 214.012 846.082 214.266 845.832 214.609C845.582 214.945 845.453 215.387 845.445 215.934H843.277C843.293 215.051 843.512 214.293 843.934 213.66C844.363 213.027 844.941 212.543 845.668 212.207C846.395 211.871 847.207 211.703 848.105 211.703C849.098 211.703 849.941 211.883 850.637 212.242C851.34 212.602 851.875 213.117 852.242 213.789C852.609 214.453 852.793 215.242 852.793 216.156C852.793 216.859 852.648 217.508 852.359 218.102C852.078 218.688 851.715 219.238 851.27 219.754C850.824 220.27 850.352 220.762 849.852 221.23C849.422 221.629 849.133 222.078 848.984 222.578C848.836 223.078 848.762 223.617 848.762 224.195ZM846.488 227.91C846.488 227.559 846.598 227.262 846.816 227.02C847.035 226.777 847.352 226.656 847.766 226.656C848.188 226.656 848.508 226.777 848.727 227.02C848.945 227.262 849.055 227.559 849.055 227.91C849.055 228.246 848.945 228.535 848.727 228.777C848.508 229.02 848.188 229.141 847.766 229.141C847.352 229.141 847.035 229.02 846.816 228.777C846.598 228.535 846.488 228.246 846.488 227.91Z" fill="white"/>
<path d="M240 220L340 220" stroke="black" stroke-width="2"/>
<path d="M317 196L341 220L317 244" stroke="black" stroke-width="2"/>
<path d="M582 220L682 220" stroke="black" stroke-width="2"/>
<path d="M659 196L683 220L659 244" stroke="black" stroke-width="2"/>
<rect x="563" width="150" height="40" rx="20" fill="#D6D6D6"/>
<path d="M637.797 14.625V26H636.281L630.555 17.2266V26H629.047V14.625H630.555L636.305 23.4219V14.625H637.797ZM639.867 21.8672V21.6875C639.867 21.0781 639.956 20.513 640.133 19.9922C640.31 19.4661 640.565 19.0104 640.898 18.625C641.232 18.2344 641.635 17.9323 642.109 17.7188C642.583 17.5 643.115 17.3906 643.703 17.3906C644.297 17.3906 644.831 17.5 645.305 17.7188C645.784 17.9323 646.19 18.2344 646.523 18.625C646.862 19.0104 647.12 19.4661 647.297 19.9922C647.474 20.513 647.562 21.0781 647.562 21.6875V21.8672C647.562 22.4766 647.474 23.0417 647.297 23.5625C647.12 24.0833 646.862 24.5391 646.523 24.9297C646.19 25.3151 645.786 25.6172 645.312 25.8359C644.844 26.0495 644.312 26.1562 643.719 26.1562C643.125 26.1562 642.591 26.0495 642.117 25.8359C641.643 25.6172 641.237 25.3151 640.898 24.9297C640.565 24.5391 640.31 24.0833 640.133 23.5625C639.956 23.0417 639.867 22.4766 639.867 21.8672ZM641.312 21.6875V21.8672C641.312 22.2891 641.362 22.6875 641.461 23.0625C641.56 23.4323 641.708 23.7604 641.906 24.0469C642.109 24.3333 642.362 24.5599 642.664 24.7266C642.966 24.888 643.318 24.9688 643.719 24.9688C644.115 24.9688 644.461 24.888 644.758 24.7266C645.06 24.5599 645.31 24.3333 645.508 24.0469C645.706 23.7604 645.854 23.4323 645.953 23.0625C646.057 22.6875 646.109 22.2891 646.109 21.8672V21.6875C646.109 21.2708 646.057 20.8776 645.953 20.5078C645.854 20.1328 645.703 19.8021 645.5 19.5156C645.302 19.224 645.052 18.9948 644.75 18.8281C644.453 18.6615 644.104 18.5781 643.703 18.5781C643.307 18.5781 642.958 18.6615 642.656 18.8281C642.359 18.9948 642.109 19.224 641.906 19.5156C641.708 19.8021 641.56 20.1328 641.461 20.5078C641.362 20.8776 641.312 21.2708 641.312 21.6875Z" fill="black"/>
</svg>
