<svg width="1263" height="80" viewBox="0 0 1263 80" fill="none" xmlns="http://www.w3.org/2000/svg">
<rect width="240" height="80" fill="black"/>
<path d="M102.727 47.1602V49H94.1953V47.1602H102.727ZM94.6406 31.9375V49H92.3789V31.9375H94.6406ZM104.414 42.8008V42.5312C104.414 41.6172 104.547 40.7695 104.812 39.9883C105.078 39.1992 105.461 38.5156 105.961 37.9375C106.461 37.3516 107.066 36.8984 107.777 36.5781C108.488 36.25 109.285 36.0859 110.168 36.0859C111.059 36.0859 111.859 36.25 112.57 36.5781C113.289 36.8984 113.898 37.3516 114.398 37.9375C114.906 38.5156 115.293 39.1992 115.559 39.9883C115.824 40.7695 115.957 41.6172 115.957 42.5312V42.8008C115.957 43.7148 115.824 44.5625 115.559 45.3438C115.293 46.125 114.906 46.8086 114.398 47.3945C113.898 47.9727 113.293 48.4258 112.582 48.7539C111.879 49.0742 111.082 49.2344 110.191 49.2344C109.301 49.2344 108.5 49.0742 107.789 48.7539C107.078 48.4258 106.469 47.9727 105.961 47.3945C105.461 46.8086 105.078 46.125 104.812 45.3438C104.547 44.5625 104.414 43.7148 104.414 42.8008ZM106.582 42.5312V42.8008C106.582 43.4336 106.656 44.0312 106.805 44.5938C106.953 45.1484 107.176 45.6406 107.473 46.0703C107.777 46.5 108.156 46.8398 108.609 47.0898C109.062 47.332 109.59 47.4531 110.191 47.4531C110.785 47.4531 111.305 47.332 111.75 47.0898C112.203 46.8398 112.578 46.5 112.875 46.0703C113.172 45.6406 113.395 45.1484 113.543 44.5938C113.699 44.0312 113.777 43.4336 113.777 42.8008V42.5312C113.777 41.9062 113.699 41.3164 113.543 40.7617C113.395 40.1992 113.168 39.7031 112.863 39.2734C112.566 38.8359 112.191 38.4922 111.738 38.2422C111.293 37.9922 110.77 37.8672 110.168 37.8672C109.574 37.8672 109.051 37.9922 108.598 38.2422C108.152 38.4922 107.777 38.8359 107.473 39.2734C107.176 39.7031 106.953 40.1992 106.805 40.7617C106.656 41.3164 106.582 41.9062 106.582 42.5312ZM126.891 36.3203H128.859V48.7305C128.859 49.8477 128.633 50.8008 128.18 51.5898C127.727 52.3789 127.094 52.9766 126.281 53.3828C125.477 53.7969 124.547 54.0039 123.492 54.0039C123.055 54.0039 122.539 53.9336 121.945 53.793C121.359 53.6602 120.781 53.4297 120.211 53.1016C119.648 52.7812 119.176 52.3477 118.793 51.8008L119.93 50.5117C120.461 51.1523 121.016 51.5977 121.594 51.8477C122.18 52.0977 122.758 52.2227 123.328 52.2227C124.016 52.2227 124.609 52.0938 125.109 51.8359C125.609 51.5781 125.996 51.1953 126.27 50.6875C126.551 50.1875 126.691 49.5703 126.691 48.8359V39.1094L126.891 36.3203ZM118.16 42.8008V42.5547C118.16 41.5859 118.273 40.707 118.5 39.918C118.734 39.1211 119.066 38.4375 119.496 37.8672C119.934 37.2969 120.461 36.8594 121.078 36.5547C121.695 36.2422 122.391 36.0859 123.164 36.0859C123.961 36.0859 124.656 36.2266 125.25 36.5078C125.852 36.7812 126.359 37.1836 126.773 37.7148C127.195 38.2383 127.527 38.8711 127.77 39.6133C128.012 40.3555 128.18 41.1953 128.273 42.1328V43.2109C128.188 44.1406 128.02 44.9766 127.77 45.7188C127.527 46.4609 127.195 47.0938 126.773 47.6172C126.359 48.1406 125.852 48.543 125.25 48.8242C124.648 49.0977 123.945 49.2344 123.141 49.2344C122.383 49.2344 121.695 49.0742 121.078 48.7539C120.469 48.4336 119.945 47.9844 119.508 47.4062C119.07 46.8281 118.734 46.1484 118.5 45.3672C118.273 44.5781 118.16 43.7227 118.16 42.8008ZM120.328 42.5547V42.8008C120.328 43.4336 120.391 44.0273 120.516 44.582C120.648 45.1367 120.848 45.625 121.113 46.0469C121.387 46.4688 121.734 46.8008 122.156 47.043C122.578 47.2773 123.082 47.3945 123.668 47.3945C124.387 47.3945 124.98 47.2422 125.449 46.9375C125.918 46.6328 126.289 46.2305 126.562 45.7305C126.844 45.2305 127.062 44.6875 127.219 44.1016V41.2773C127.133 40.8477 127 40.4336 126.82 40.0352C126.648 39.6289 126.422 39.2695 126.141 38.957C125.867 38.6367 125.527 38.3828 125.121 38.1953C124.715 38.0078 124.238 37.9141 123.691 37.9141C123.098 37.9141 122.586 38.0391 122.156 38.2891C121.734 38.5312 121.387 38.8672 121.113 39.2969C120.848 39.7188 120.648 40.2109 120.516 40.7734C120.391 41.3281 120.328 41.9219 120.328 42.5547ZM134.508 36.3203V49H132.328V36.3203H134.508ZM132.164 32.957C132.164 32.6055 132.27 32.3086 132.48 32.0664C132.699 31.8242 133.02 31.7031 133.441 31.7031C133.855 31.7031 134.172 31.8242 134.391 32.0664C134.617 32.3086 134.73 32.6055 134.73 32.957C134.73 33.293 134.617 33.582 134.391 33.8242C134.172 34.0586 133.855 34.1758 133.441 34.1758C133.02 34.1758 132.699 34.0586 132.48 33.8242C132.27 33.582 132.164 33.293 132.164 32.957ZM140.156 39.0273V49H137.988V36.3203H140.039L140.156 39.0273ZM139.641 42.1797L138.738 42.1445C138.746 41.2773 138.875 40.4766 139.125 39.7422C139.375 39 139.727 38.3555 140.18 37.8086C140.633 37.2617 141.172 36.8398 141.797 36.543C142.43 36.2383 143.129 36.0859 143.895 36.0859C144.52 36.0859 145.082 36.1719 145.582 36.3438C146.082 36.5078 146.508 36.7734 146.859 37.1406C147.219 37.5078 147.492 37.9844 147.68 38.5703C147.867 39.1484 147.961 39.8555 147.961 40.6914V49H145.781V40.668C145.781 40.0039 145.684 39.4727 145.488 39.0742C145.293 38.668 145.008 38.375 144.633 38.1953C144.258 38.0078 143.797 37.9141 143.25 37.9141C142.711 37.9141 142.219 38.0273 141.773 38.2539C141.336 38.4805 140.957 38.793 140.637 39.1914C140.324 39.5898 140.078 40.0469 139.898 40.5625C139.727 41.0703 139.641 41.6094 139.641 42.1797Z" fill="white"/>
<rect x="341" width="240" height="80" fill="black"/>
<path d="M395.188 17.9375V35H392.961V17.9375H395.188ZM400.672 17.9375V19.7891H387.488V17.9375H400.672ZM409.016 32.832V26.3047C409.016 25.8047 408.914 25.3711 408.711 25.0039C408.516 24.6289 408.219 24.3398 407.82 24.1367C407.422 23.9336 406.93 23.832 406.344 23.832C405.797 23.832 405.316 23.9258 404.902 24.1133C404.496 24.3008 404.176 24.5469 403.941 24.8516C403.715 25.1562 403.602 25.4844 403.602 25.8359H401.434C401.434 25.3828 401.551 24.9336 401.785 24.4883C402.02 24.043 402.355 23.6406 402.793 23.2812C403.238 22.9141 403.77 22.625 404.387 22.4141C405.012 22.1953 405.707 22.0859 406.473 22.0859C407.395 22.0859 408.207 22.2422 408.91 22.5547C409.621 22.8672 410.176 23.3398 410.574 23.9727C410.98 24.5977 411.184 25.3828 411.184 26.3281V32.2344C411.184 32.6562 411.219 33.1055 411.289 33.582C411.367 34.0586 411.48 34.4688 411.629 34.8125V35H409.367C409.258 34.75 409.172 34.418 409.109 34.0039C409.047 33.582 409.016 33.1914 409.016 32.832ZM409.391 27.3125L409.414 28.8359H407.223C406.605 28.8359 406.055 28.8867 405.57 28.9883C405.086 29.082 404.68 29.2266 404.352 29.4219C404.023 29.6172 403.773 29.8633 403.602 30.1602C403.43 30.4492 403.344 30.7891 403.344 31.1797C403.344 31.5781 403.434 31.9414 403.613 32.2695C403.793 32.5977 404.062 32.8594 404.422 33.0547C404.789 33.2422 405.238 33.3359 405.77 33.3359C406.434 33.3359 407.02 33.1953 407.527 32.9141C408.035 32.6328 408.438 32.2891 408.734 31.8828C409.039 31.4766 409.203 31.082 409.227 30.6992L410.152 31.7422C410.098 32.0703 409.949 32.4336 409.707 32.832C409.465 33.2305 409.141 33.6133 408.734 33.9805C408.336 34.3398 407.859 34.6406 407.305 34.8828C406.758 35.1172 406.141 35.2344 405.453 35.2344C404.594 35.2344 403.84 35.0664 403.191 34.7305C402.551 34.3945 402.051 33.9453 401.691 33.3828C401.34 32.8125 401.164 32.1758 401.164 31.4727C401.164 30.793 401.297 30.1953 401.562 29.6797C401.828 29.1562 402.211 28.7227 402.711 28.3789C403.211 28.0273 403.812 27.7617 404.516 27.582C405.219 27.4023 406.004 27.3125 406.871 27.3125H409.391ZM416.762 24.7578V39.875H414.582V22.3203H416.574L416.762 24.7578ZM425.305 28.5547V28.8008C425.305 29.7227 425.195 30.5781 424.977 31.3672C424.758 32.1484 424.438 32.8281 424.016 33.4062C423.602 33.9844 423.09 34.4336 422.48 34.7539C421.871 35.0742 421.172 35.2344 420.383 35.2344C419.578 35.2344 418.867 35.1016 418.25 34.8359C417.633 34.5703 417.109 34.1836 416.68 33.6758C416.25 33.168 415.906 32.5586 415.648 31.8477C415.398 31.1367 415.227 30.3359 415.133 29.4453V28.1328C415.227 27.1953 415.402 26.3555 415.66 25.6133C415.918 24.8711 416.258 24.2383 416.68 23.7148C417.109 23.1836 417.629 22.7812 418.238 22.5078C418.848 22.2266 419.551 22.0859 420.348 22.0859C421.145 22.0859 421.852 22.2422 422.469 22.5547C423.086 22.8594 423.605 23.2969 424.027 23.8672C424.449 24.4375 424.766 25.1211 424.977 25.918C425.195 26.707 425.305 27.5859 425.305 28.5547ZM423.125 28.8008V28.5547C423.125 27.9219 423.059 27.3281 422.926 26.7734C422.793 26.2109 422.586 25.7188 422.305 25.2969C422.031 24.8672 421.68 24.5312 421.25 24.2891C420.82 24.0391 420.309 23.9141 419.715 23.9141C419.168 23.9141 418.691 24.0078 418.285 24.1953C417.887 24.3828 417.547 24.6367 417.266 24.957C416.984 25.2695 416.754 25.6289 416.574 26.0352C416.402 26.4336 416.273 26.8477 416.188 27.2773V30.3125C416.344 30.8594 416.562 31.375 416.844 31.8594C417.125 32.3359 417.5 32.7227 417.969 33.0195C418.438 33.3086 419.027 33.4531 419.738 33.4531C420.324 33.4531 420.828 33.332 421.25 33.0898C421.68 32.8398 422.031 32.5 422.305 32.0703C422.586 31.6406 422.793 31.1484 422.926 30.5938C423.059 30.0312 423.125 29.4336 423.125 28.8008ZM433.449 28.8008V28.5312C433.449 27.6172 433.582 26.7695 433.848 25.9883C434.113 25.1992 434.496 24.5156 434.996 23.9375C435.496 23.3516 436.102 22.8984 436.812 22.5781C437.523 22.25 438.32 22.0859 439.203 22.0859C440.094 22.0859 440.895 22.25 441.605 22.5781C442.324 22.8984 442.934 23.3516 443.434 23.9375C443.941 24.5156 444.328 25.1992 444.594 25.9883C444.859 26.7695 444.992 27.6172 444.992 28.5312V28.8008C444.992 29.7148 444.859 30.5625 444.594 31.3438C444.328 32.125 443.941 32.8086 443.434 33.3945C442.934 33.9727 442.328 34.4258 441.617 34.7539C440.914 35.0742 440.117 35.2344 439.227 35.2344C438.336 35.2344 437.535 35.0742 436.824 34.7539C436.113 34.4258 435.504 33.9727 434.996 33.3945C434.496 32.8086 434.113 32.125 433.848 31.3438C433.582 30.5625 433.449 29.7148 433.449 28.8008ZM435.617 28.5312V28.8008C435.617 29.4336 435.691 30.0312 435.84 30.5938C435.988 31.1484 436.211 31.6406 436.508 32.0703C436.812 32.5 437.191 32.8398 437.645 33.0898C438.098 33.332 438.625 33.4531 439.227 33.4531C439.82 33.4531 440.34 33.332 440.785 33.0898C441.238 32.8398 441.613 32.5 441.91 32.0703C442.207 31.6406 442.43 31.1484 442.578 30.5938C442.734 30.0312 442.812 29.4336 442.812 28.8008V28.5312C442.812 27.9062 442.734 27.3164 442.578 26.7617C442.43 26.1992 442.203 25.7031 441.898 25.2734C441.602 24.8359 441.227 24.4922 440.773 24.2422C440.328 23.9922 439.805 23.8672 439.203 23.8672C438.609 23.8672 438.086 23.9922 437.633 24.2422C437.188 24.4922 436.812 24.8359 436.508 25.2734C436.211 25.7031 435.988 26.1992 435.84 26.7617C435.691 27.3164 435.617 27.9062 435.617 28.5312ZM449.879 25.0273V35H447.711V22.3203H449.762L449.879 25.0273ZM449.363 28.1797L448.461 28.1445C448.469 27.2773 448.598 26.4766 448.848 25.7422C449.098 25 449.449 24.3555 449.902 23.8086C450.355 23.2617 450.895 22.8398 451.52 22.543C452.152 22.2383 452.852 22.0859 453.617 22.0859C454.242 22.0859 454.805 22.1719 455.305 22.3438C455.805 22.5078 456.23 22.7734 456.582 23.1406C456.941 23.5078 457.215 23.9844 457.402 24.5703C457.59 25.1484 457.684 25.8555 457.684 26.6914V35H455.504V26.668C455.504 26.0039 455.406 25.4727 455.211 25.0742C455.016 24.668 454.73 24.375 454.355 24.1953C453.98 24.0078 453.52 23.9141 452.973 23.9141C452.434 23.9141 451.941 24.0273 451.496 24.2539C451.059 24.4805 450.68 24.793 450.359 25.1914C450.047 25.5898 449.801 26.0469 449.621 26.5625C449.449 27.0703 449.363 27.6094 449.363 28.1797ZM472.766 32.4102L477.793 17.9375H480.242L473.926 35H472.18L472.766 32.4102ZM468.066 17.9375L473.047 32.4102L473.668 35H471.922L465.617 17.9375H468.066ZM484.566 22.3203V35H482.387V22.3203H484.566ZM482.223 18.957C482.223 18.6055 482.328 18.3086 482.539 18.0664C482.758 17.8242 483.078 17.7031 483.5 17.7031C483.914 17.7031 484.23 17.8242 484.449 18.0664C484.676 18.3086 484.789 18.6055 484.789 18.957C484.789 19.293 484.676 19.582 484.449 19.8242C484.23 20.0586 483.914 20.1758 483.5 20.1758C483.078 20.1758 482.758 20.0586 482.539 19.8242C482.328 19.582 482.223 19.293 482.223 18.957ZM490.215 24.3125V35H488.047V22.3203H490.156L490.215 24.3125ZM494.176 22.25L494.164 24.2656C493.984 24.2266 493.812 24.2031 493.648 24.1953C493.492 24.1797 493.312 24.1719 493.109 24.1719C492.609 24.1719 492.168 24.25 491.785 24.4062C491.402 24.5625 491.078 24.7812 490.812 25.0625C490.547 25.3438 490.336 25.6797 490.18 26.0703C490.031 26.4531 489.934 26.875 489.887 27.3359L489.277 27.6875C489.277 26.9219 489.352 26.2031 489.5 25.5312C489.656 24.8594 489.895 24.2656 490.215 23.75C490.535 23.2266 490.941 22.8203 491.434 22.5312C491.934 22.2344 492.527 22.0859 493.215 22.0859C493.371 22.0859 493.551 22.1055 493.754 22.1445C493.957 22.1758 494.098 22.2109 494.176 22.25ZM502.074 22.3203V23.9844H495.219V22.3203H502.074ZM497.539 19.2383H499.707V31.8594C499.707 32.2891 499.773 32.6133 499.906 32.832C500.039 33.0508 500.211 33.1953 500.422 33.2656C500.633 33.3359 500.859 33.3711 501.102 33.3711C501.281 33.3711 501.469 33.3555 501.664 33.3242C501.867 33.2852 502.02 33.2539 502.121 33.2305L502.133 35C501.961 35.0547 501.734 35.1055 501.453 35.1523C501.18 35.207 500.848 35.2344 500.457 35.2344C499.926 35.2344 499.438 35.1289 498.992 34.918C498.547 34.707 498.191 34.3555 497.926 33.8633C497.668 33.3633 497.539 32.6914 497.539 31.8477V19.2383ZM512.375 32.0703V22.3203H514.555V35H512.48L512.375 32.0703ZM512.785 29.3984L513.688 29.375C513.688 30.2188 513.598 31 513.418 31.7188C513.246 32.4297 512.965 33.0469 512.574 33.5703C512.184 34.0938 511.672 34.5039 511.039 34.8008C510.406 35.0898 509.637 35.2344 508.73 35.2344C508.113 35.2344 507.547 35.1445 507.031 34.9648C506.523 34.7852 506.086 34.5078 505.719 34.1328C505.352 33.7578 505.066 33.2695 504.863 32.668C504.668 32.0664 504.57 31.3438 504.57 30.5V22.3203H506.738V30.5234C506.738 31.0938 506.801 31.5664 506.926 31.9414C507.059 32.3086 507.234 32.6016 507.453 32.8203C507.68 33.0312 507.93 33.1797 508.203 33.2656C508.484 33.3516 508.773 33.3945 509.07 33.3945C509.992 33.3945 510.723 33.2188 511.262 32.8672C511.801 32.5078 512.188 32.0273 512.422 31.4258C512.664 30.8164 512.785 30.1406 512.785 29.3984ZM525.336 32.832V26.3047C525.336 25.8047 525.234 25.3711 525.031 25.0039C524.836 24.6289 524.539 24.3398 524.141 24.1367C523.742 23.9336 523.25 23.832 522.664 23.832C522.117 23.832 521.637 23.9258 521.223 24.1133C520.816 24.3008 520.496 24.5469 520.262 24.8516C520.035 25.1562 519.922 25.4844 519.922 25.8359H517.754C517.754 25.3828 517.871 24.9336 518.105 24.4883C518.34 24.043 518.676 23.6406 519.113 23.2812C519.559 22.9141 520.09 22.625 520.707 22.4141C521.332 22.1953 522.027 22.0859 522.793 22.0859C523.715 22.0859 524.527 22.2422 525.23 22.5547C525.941 22.8672 526.496 23.3398 526.895 23.9727C527.301 24.5977 527.504 25.3828 527.504 26.3281V32.2344C527.504 32.6562 527.539 33.1055 527.609 33.582C527.688 34.0586 527.801 34.4688 527.949 34.8125V35H525.688C525.578 34.75 525.492 34.418 525.43 34.0039C525.367 33.582 525.336 33.1914 525.336 32.832ZM525.711 27.3125L525.734 28.8359H523.543C522.926 28.8359 522.375 28.8867 521.891 28.9883C521.406 29.082 521 29.2266 520.672 29.4219C520.344 29.6172 520.094 29.8633 519.922 30.1602C519.75 30.4492 519.664 30.7891 519.664 31.1797C519.664 31.5781 519.754 31.9414 519.934 32.2695C520.113 32.5977 520.383 32.8594 520.742 33.0547C521.109 33.2422 521.559 33.3359 522.09 33.3359C522.754 33.3359 523.34 33.1953 523.848 32.9141C524.355 32.6328 524.758 32.2891 525.055 31.8828C525.359 31.4766 525.523 31.082 525.547 30.6992L526.473 31.7422C526.418 32.0703 526.27 32.4336 526.027 32.832C525.785 33.2305 525.461 33.6133 525.055 33.9805C524.656 34.3398 524.18 34.6406 523.625 34.8828C523.078 35.1172 522.461 35.2344 521.773 35.2344C520.914 35.2344 520.16 35.0664 519.512 34.7305C518.871 34.3945 518.371 33.9453 518.012 33.3828C517.66 32.8125 517.484 32.1758 517.484 31.4727C517.484 30.793 517.617 30.1953 517.883 29.6797C518.148 29.1562 518.531 28.7227 519.031 28.3789C519.531 28.0273 520.133 27.7617 520.836 27.582C521.539 27.4023 522.324 27.3125 523.191 27.3125H525.711ZM533.27 17V35H531.09V17H533.27ZM448.215 57.5742H450.465C450.348 58.6523 450.039 59.6172 449.539 60.4688C449.039 61.3203 448.332 61.9961 447.418 62.4961C446.504 62.9883 445.363 63.2344 443.996 63.2344C442.996 63.2344 442.086 63.0469 441.266 62.6719C440.453 62.2969 439.754 61.7656 439.168 61.0781C438.582 60.3828 438.129 59.5508 437.809 58.582C437.496 57.6055 437.34 56.5195 437.34 55.3242V53.625C437.34 52.4297 437.496 51.3477 437.809 50.3789C438.129 49.4023 438.586 48.5664 439.18 47.8711C439.781 47.1758 440.504 46.6406 441.348 46.2656C442.191 45.8906 443.141 45.7031 444.195 45.7031C445.484 45.7031 446.574 45.9453 447.465 46.4297C448.355 46.9141 449.047 47.5859 449.539 48.4453C450.039 49.2969 450.348 50.2852 450.465 51.4102H448.215C448.105 50.6133 447.902 49.9297 447.605 49.3594C447.309 48.7812 446.887 48.3359 446.34 48.0234C445.793 47.7109 445.078 47.5547 444.195 47.5547C443.438 47.5547 442.77 47.6992 442.191 47.9883C441.621 48.2773 441.141 48.6875 440.75 49.2188C440.367 49.75 440.078 50.3867 439.883 51.1289C439.688 51.8711 439.59 52.6953 439.59 53.6016V55.3242C439.59 56.1602 439.676 56.9453 439.848 57.6797C440.027 58.4141 440.297 59.0586 440.656 59.6133C441.016 60.168 441.473 60.6055 442.027 60.9258C442.582 61.2383 443.238 61.3945 443.996 61.3945C444.957 61.3945 445.723 61.2422 446.293 60.9375C446.863 60.6328 447.293 60.1953 447.582 59.625C447.879 59.0547 448.09 58.3711 448.215 57.5742ZM460.695 60.832V54.3047C460.695 53.8047 460.594 53.3711 460.391 53.0039C460.195 52.6289 459.898 52.3398 459.5 52.1367C459.102 51.9336 458.609 51.832 458.023 51.832C457.477 51.832 456.996 51.9258 456.582 52.1133C456.176 52.3008 455.855 52.5469 455.621 52.8516C455.395 53.1562 455.281 53.4844 455.281 53.8359H453.113C453.113 53.3828 453.23 52.9336 453.465 52.4883C453.699 52.043 454.035 51.6406 454.473 51.2812C454.918 50.9141 455.449 50.625 456.066 50.4141C456.691 50.1953 457.387 50.0859 458.152 50.0859C459.074 50.0859 459.887 50.2422 460.59 50.5547C461.301 50.8672 461.855 51.3398 462.254 51.9727C462.66 52.5977 462.863 53.3828 462.863 54.3281V60.2344C462.863 60.6562 462.898 61.1055 462.969 61.582C463.047 62.0586 463.16 62.4688 463.309 62.8125V63H461.047C460.938 62.75 460.852 62.418 460.789 62.0039C460.727 61.582 460.695 61.1914 460.695 60.832ZM461.07 55.3125L461.094 56.8359H458.902C458.285 56.8359 457.734 56.8867 457.25 56.9883C456.766 57.082 456.359 57.2266 456.031 57.4219C455.703 57.6172 455.453 57.8633 455.281 58.1602C455.109 58.4492 455.023 58.7891 455.023 59.1797C455.023 59.5781 455.113 59.9414 455.293 60.2695C455.473 60.5977 455.742 60.8594 456.102 61.0547C456.469 61.2422 456.918 61.3359 457.449 61.3359C458.113 61.3359 458.699 61.1953 459.207 60.9141C459.715 60.6328 460.117 60.2891 460.414 59.8828C460.719 59.4766 460.883 59.082 460.906 58.6992L461.832 59.7422C461.777 60.0703 461.629 60.4336 461.387 60.832C461.145 61.2305 460.82 61.6133 460.414 61.9805C460.016 62.3398 459.539 62.6406 458.984 62.8828C458.438 63.1172 457.82 63.2344 457.133 63.2344C456.273 63.2344 455.52 63.0664 454.871 62.7305C454.23 62.3945 453.73 61.9453 453.371 61.3828C453.02 60.8125 452.844 60.1758 452.844 59.4727C452.844 58.793 452.977 58.1953 453.242 57.6797C453.508 57.1562 453.891 56.7227 454.391 56.3789C454.891 56.0273 455.492 55.7617 456.195 55.582C456.898 55.4023 457.684 55.3125 458.551 55.3125H461.07ZM468.441 52.3125V63H466.273V50.3203H468.383L468.441 52.3125ZM472.402 50.25L472.391 52.2656C472.211 52.2266 472.039 52.2031 471.875 52.1953C471.719 52.1797 471.539 52.1719 471.336 52.1719C470.836 52.1719 470.395 52.25 470.012 52.4062C469.629 52.5625 469.305 52.7812 469.039 53.0625C468.773 53.3438 468.562 53.6797 468.406 54.0703C468.258 54.4531 468.16 54.875 468.113 55.3359L467.504 55.6875C467.504 54.9219 467.578 54.2031 467.727 53.5312C467.883 52.8594 468.121 52.2656 468.441 51.75C468.762 51.2266 469.168 50.8203 469.66 50.5312C470.16 50.2344 470.754 50.0859 471.441 50.0859C471.598 50.0859 471.777 50.1055 471.98 50.1445C472.184 50.1758 472.324 50.2109 472.402 50.25ZM482.164 60.5391V45H484.344V63H482.352L482.164 60.5391ZM473.633 56.8008V56.5547C473.633 55.5859 473.75 54.707 473.984 53.918C474.227 53.1211 474.566 52.4375 475.004 51.8672C475.449 51.2969 475.977 50.8594 476.586 50.5547C477.203 50.2422 477.891 50.0859 478.648 50.0859C479.445 50.0859 480.141 50.2266 480.734 50.5078C481.336 50.7812 481.844 51.1836 482.258 51.7148C482.68 52.2383 483.012 52.8711 483.254 53.6133C483.496 54.3555 483.664 55.1953 483.758 56.1328V57.2109C483.672 58.1406 483.504 58.9766 483.254 59.7188C483.012 60.4609 482.68 61.0938 482.258 61.6172C481.844 62.1406 481.336 62.543 480.734 62.8242C480.133 63.0977 479.43 63.2344 478.625 63.2344C477.883 63.2344 477.203 63.0742 476.586 62.7539C475.977 62.4336 475.449 61.9844 475.004 61.4062C474.566 60.8281 474.227 60.1484 473.984 59.3672C473.75 58.5781 473.633 57.7227 473.633 56.8008ZM475.812 56.5547V56.8008C475.812 57.4336 475.875 58.0273 476 58.582C476.133 59.1367 476.336 59.625 476.609 60.0469C476.883 60.4688 477.23 60.8008 477.652 61.043C478.074 61.2773 478.578 61.3945 479.164 61.3945C479.883 61.3945 480.473 61.2422 480.934 60.9375C481.402 60.6328 481.777 60.2305 482.059 59.7305C482.34 59.2305 482.559 58.6875 482.715 58.1016V55.2773C482.621 54.8477 482.484 54.4336 482.305 54.0352C482.133 53.6289 481.906 53.2695 481.625 52.957C481.352 52.6367 481.012 52.3828 480.605 52.1953C480.207 52.0078 479.734 51.9141 479.188 51.9141C478.594 51.9141 478.082 52.0391 477.652 52.2891C477.23 52.5312 476.883 52.8672 476.609 53.2969C476.336 53.7188 476.133 54.2109 476 54.7734C475.875 55.3281 475.812 55.9219 475.812 56.5547Z" fill="white"/>
<rect x="681" width="240" height="80" fill="black"/>
<path d="M766.875 44.6875C766.875 44.2891 766.812 43.9375 766.688 43.6328C766.57 43.3203 766.359 43.0391 766.055 42.7891C765.758 42.5391 765.344 42.3008 764.812 42.0742C764.289 41.8477 763.625 41.6172 762.82 41.3828C761.977 41.1328 761.215 40.8555 760.535 40.5508C759.855 40.2383 759.273 39.8828 758.789 39.4844C758.305 39.0859 757.934 38.6289 757.676 38.1133C757.418 37.5977 757.289 37.0078 757.289 36.3438C757.289 35.6797 757.426 35.0664 757.699 34.5039C757.973 33.9414 758.363 33.4531 758.871 33.0391C759.387 32.6172 760 32.2891 760.711 32.0547C761.422 31.8203 762.215 31.7031 763.09 31.7031C764.371 31.7031 765.457 31.9492 766.348 32.4414C767.246 32.9258 767.93 33.5625 768.398 34.3516C768.867 35.1328 769.102 35.9688 769.102 36.8594H766.852C766.852 36.2188 766.715 35.6523 766.441 35.1602C766.168 34.6602 765.754 34.2695 765.199 33.9883C764.645 33.6992 763.941 33.5547 763.09 33.5547C762.285 33.5547 761.621 33.6758 761.098 33.918C760.574 34.1602 760.184 34.4883 759.926 34.9023C759.676 35.3164 759.551 35.7891 759.551 36.3203C759.551 36.6797 759.625 37.0078 759.773 37.3047C759.93 37.5938 760.168 37.8633 760.488 38.1133C760.816 38.3633 761.23 38.5938 761.73 38.8047C762.238 39.0156 762.844 39.2188 763.547 39.4141C764.516 39.6875 765.352 39.9922 766.055 40.3281C766.758 40.6641 767.336 41.043 767.789 41.4648C768.25 41.8789 768.59 42.3516 768.809 42.8828C769.035 43.4062 769.148 44 769.148 44.6641C769.148 45.3594 769.008 45.9883 768.727 46.5508C768.445 47.1133 768.043 47.5938 767.52 47.9922C766.996 48.3906 766.367 48.6992 765.633 48.918C764.906 49.1289 764.094 49.2344 763.195 49.2344C762.406 49.2344 761.629 49.125 760.863 48.9062C760.105 48.6875 759.414 48.3594 758.789 47.9219C758.172 47.4844 757.676 46.9453 757.301 46.3047C756.934 45.6562 756.75 44.9062 756.75 44.0547H759C759 44.6406 759.113 45.1445 759.34 45.5664C759.566 45.9805 759.875 46.3242 760.266 46.5977C760.664 46.8711 761.113 47.0742 761.613 47.207C762.121 47.332 762.648 47.3945 763.195 47.3945C763.984 47.3945 764.652 47.2852 765.199 47.0664C765.746 46.8477 766.16 46.5352 766.441 46.1289C766.73 45.7227 766.875 45.2422 766.875 44.6875ZM776.777 47.4531C777.293 47.4531 777.77 47.3477 778.207 47.1367C778.645 46.9258 779.004 46.6367 779.285 46.2695C779.566 45.8945 779.727 45.4688 779.766 44.9922H781.828C781.789 45.7422 781.535 46.4414 781.066 47.0898C780.605 47.7305 780 48.25 779.25 48.6484C778.5 49.0391 777.676 49.2344 776.777 49.2344C775.824 49.2344 774.992 49.0664 774.281 48.7305C773.578 48.3945 772.992 47.9336 772.523 47.3477C772.062 46.7617 771.715 46.0898 771.48 45.332C771.254 44.5664 771.141 43.7578 771.141 42.9062V42.4141C771.141 41.5625 771.254 40.7578 771.48 40C771.715 39.2344 772.062 38.5586 772.523 37.9727C772.992 37.3867 773.578 36.9258 774.281 36.5898C774.992 36.2539 775.824 36.0859 776.777 36.0859C777.77 36.0859 778.637 36.2891 779.379 36.6953C780.121 37.0938 780.703 37.6406 781.125 38.3359C781.555 39.0234 781.789 39.8047 781.828 40.6797H779.766C779.727 40.1562 779.578 39.6836 779.32 39.2617C779.07 38.8398 778.727 38.5039 778.289 38.2539C777.859 37.9961 777.355 37.8672 776.777 37.8672C776.113 37.8672 775.555 38 775.102 38.2656C774.656 38.5234 774.301 38.875 774.035 39.3203C773.777 39.7578 773.59 40.2461 773.473 40.7852C773.363 41.3164 773.309 41.8594 773.309 42.4141V42.9062C773.309 43.4609 773.363 44.0078 773.473 44.5469C773.582 45.0859 773.766 45.5742 774.023 46.0117C774.289 46.4492 774.645 46.8008 775.09 47.0664C775.543 47.3242 776.105 47.4531 776.777 47.4531ZM791.742 46.832V40.3047C791.742 39.8047 791.641 39.3711 791.438 39.0039C791.242 38.6289 790.945 38.3398 790.547 38.1367C790.148 37.9336 789.656 37.832 789.07 37.832C788.523 37.832 788.043 37.9258 787.629 38.1133C787.223 38.3008 786.902 38.5469 786.668 38.8516C786.441 39.1562 786.328 39.4844 786.328 39.8359H784.16C784.16 39.3828 784.277 38.9336 784.512 38.4883C784.746 38.043 785.082 37.6406 785.52 37.2812C785.965 36.9141 786.496 36.625 787.113 36.4141C787.738 36.1953 788.434 36.0859 789.199 36.0859C790.121 36.0859 790.934 36.2422 791.637 36.5547C792.348 36.8672 792.902 37.3398 793.301 37.9727C793.707 38.5977 793.91 39.3828 793.91 40.3281V46.2344C793.91 46.6562 793.945 47.1055 794.016 47.582C794.094 48.0586 794.207 48.4688 794.355 48.8125V49H792.094C791.984 48.75 791.898 48.418 791.836 48.0039C791.773 47.582 791.742 47.1914 791.742 46.832ZM792.117 41.3125L792.141 42.8359H789.949C789.332 42.8359 788.781 42.8867 788.297 42.9883C787.812 43.082 787.406 43.2266 787.078 43.4219C786.75 43.6172 786.5 43.8633 786.328 44.1602C786.156 44.4492 786.07 44.7891 786.07 45.1797C786.07 45.5781 786.16 45.9414 786.34 46.2695C786.52 46.5977 786.789 46.8594 787.148 47.0547C787.516 47.2422 787.965 47.3359 788.496 47.3359C789.16 47.3359 789.746 47.1953 790.254 46.9141C790.762 46.6328 791.164 46.2891 791.461 45.8828C791.766 45.4766 791.93 45.082 791.953 44.6992L792.879 45.7422C792.824 46.0703 792.676 46.4336 792.434 46.832C792.191 47.2305 791.867 47.6133 791.461 47.9805C791.062 48.3398 790.586 48.6406 790.031 48.8828C789.484 49.1172 788.867 49.2344 788.18 49.2344C787.32 49.2344 786.566 49.0664 785.918 48.7305C785.277 48.3945 784.777 47.9453 784.418 47.3828C784.066 46.8125 783.891 46.1758 783.891 45.4727C783.891 44.793 784.023 44.1953 784.289 43.6797C784.555 43.1562 784.938 42.7227 785.438 42.3789C785.938 42.0273 786.539 41.7617 787.242 41.582C787.945 41.4023 788.73 41.3125 789.598 41.3125H792.117ZM799.488 39.0273V49H797.32V36.3203H799.371L799.488 39.0273ZM798.973 42.1797L798.07 42.1445C798.078 41.2773 798.207 40.4766 798.457 39.7422C798.707 39 799.059 38.3555 799.512 37.8086C799.965 37.2617 800.504 36.8398 801.129 36.543C801.762 36.2383 802.461 36.0859 803.227 36.0859C803.852 36.0859 804.414 36.1719 804.914 36.3438C805.414 36.5078 805.84 36.7734 806.191 37.1406C806.551 37.5078 806.824 37.9844 807.012 38.5703C807.199 39.1484 807.293 39.8555 807.293 40.6914V49H805.113V40.668C805.113 40.0039 805.016 39.4727 804.82 39.0742C804.625 38.668 804.34 38.375 803.965 38.1953C803.59 38.0078 803.129 37.9141 802.582 37.9141C802.043 37.9141 801.551 38.0273 801.105 38.2539C800.668 38.4805 800.289 38.793 799.969 39.1914C799.656 39.5898 799.41 40.0469 799.23 40.5625C799.059 41.0703 798.973 41.6094 798.973 42.1797ZM825.621 47.043L829.957 50.4766L828.434 51.8828L824.168 48.4961L825.621 47.043ZM829.898 39.9297V41.0078C829.898 42.2891 829.738 43.4375 829.418 44.4531C829.098 45.4688 828.637 46.332 828.035 47.043C827.434 47.7539 826.711 48.2969 825.867 48.6719C825.031 49.0469 824.094 49.2344 823.055 49.2344C822.047 49.2344 821.121 49.0469 820.277 48.6719C819.441 48.2969 818.715 47.7539 818.098 47.043C817.488 46.332 817.016 45.4688 816.68 44.4531C816.344 43.4375 816.176 42.2891 816.176 41.0078V39.9297C816.176 38.6484 816.34 37.5039 816.668 36.4961C817.004 35.4805 817.477 34.6172 818.086 33.9062C818.695 33.1875 819.418 32.6406 820.254 32.2656C821.098 31.8906 822.023 31.7031 823.031 31.7031C824.07 31.7031 825.012 31.8906 825.855 32.2656C826.699 32.6406 827.422 33.1875 828.023 33.9062C828.625 34.6172 829.086 35.4805 829.406 36.4961C829.734 37.5039 829.898 38.6484 829.898 39.9297ZM827.66 41.0078V39.9062C827.66 38.8906 827.555 37.9922 827.344 37.2109C827.141 36.4297 826.84 35.7734 826.441 35.2422C826.043 34.7109 825.559 34.3086 824.988 34.0352C824.418 33.7617 823.766 33.625 823.031 33.625C822.336 33.625 821.703 33.7617 821.133 34.0352C820.57 34.3086 820.086 34.7109 819.68 35.2422C819.273 35.7734 818.961 36.4297 818.742 37.2109C818.523 37.9922 818.414 38.8906 818.414 39.9062V41.0078C818.414 42.0312 818.523 42.9375 818.742 43.7266C818.961 44.5078 819.273 45.168 819.68 45.707C820.094 46.2383 820.586 46.6406 821.156 46.9141C821.727 47.1875 822.359 47.3242 823.055 47.3242C823.789 47.3242 824.441 47.1875 825.012 46.9141C825.582 46.6406 826.062 46.2383 826.453 45.707C826.852 45.168 827.152 44.5078 827.355 43.7266C827.559 42.9375 827.66 42.0312 827.66 41.0078ZM833.391 31.9375H839.039C840.32 31.9375 841.402 32.1328 842.285 32.5234C843.176 32.9141 843.852 33.4922 844.312 34.2578C844.781 35.0156 845.016 35.9492 845.016 37.0586C845.016 37.8398 844.855 38.5547 844.535 39.2031C844.223 39.8438 843.77 40.3906 843.176 40.8438C842.59 41.2891 841.887 41.6211 841.066 41.8398L840.434 42.0859H835.125L835.102 40.2461H839.109C839.922 40.2461 840.598 40.1055 841.137 39.8242C841.676 39.5352 842.082 39.1484 842.355 38.6641C842.629 38.1797 842.766 37.6445 842.766 37.0586C842.766 36.4023 842.637 35.8281 842.379 35.3359C842.121 34.8438 841.715 34.4648 841.16 34.1992C840.613 33.9258 839.906 33.7891 839.039 33.7891H835.652V49H833.391V31.9375ZM843.363 49L839.215 41.2656L841.57 41.2539L845.777 48.8594V49H843.363Z" fill="white"/>
<rect x="1023" width="240" height="80" fill="black"/>
<path d="M1085.89 43.5742H1088.14C1088.03 44.6523 1087.72 45.6172 1087.22 46.4688C1086.72 47.3203 1086.01 47.9961 1085.1 48.4961C1084.18 48.9883 1083.04 49.2344 1081.68 49.2344C1080.68 49.2344 1079.77 49.0469 1078.95 48.6719C1078.13 48.2969 1077.43 47.7656 1076.85 47.0781C1076.26 46.3828 1075.81 45.5508 1075.49 44.582C1075.18 43.6055 1075.02 42.5195 1075.02 41.3242V39.625C1075.02 38.4297 1075.18 37.3477 1075.49 36.3789C1075.81 35.4023 1076.27 34.5664 1076.86 33.8711C1077.46 33.1758 1078.18 32.6406 1079.03 32.2656C1079.87 31.8906 1080.82 31.7031 1081.88 31.7031C1083.16 31.7031 1084.25 31.9453 1085.14 32.4297C1086.04 32.9141 1086.73 33.5859 1087.22 34.4453C1087.72 35.2969 1088.03 36.2852 1088.14 37.4102H1085.89C1085.79 36.6133 1085.58 35.9297 1085.29 35.3594C1084.99 34.7812 1084.57 34.3359 1084.02 34.0234C1083.47 33.7109 1082.76 33.5547 1081.88 33.5547C1081.12 33.5547 1080.45 33.6992 1079.87 33.9883C1079.3 34.2773 1078.82 34.6875 1078.43 35.2188C1078.05 35.75 1077.76 36.3867 1077.56 37.1289C1077.37 37.8711 1077.27 38.6953 1077.27 39.6016V41.3242C1077.27 42.1602 1077.36 42.9453 1077.53 43.6797C1077.71 44.4141 1077.98 45.0586 1078.34 45.6133C1078.7 46.168 1079.15 46.6055 1079.71 46.9258C1080.26 47.2383 1080.92 47.3945 1081.68 47.3945C1082.64 47.3945 1083.4 47.2422 1083.97 46.9375C1084.54 46.6328 1084.97 46.1953 1085.26 45.625C1085.56 45.0547 1085.77 44.3711 1085.89 43.5742ZM1090.32 42.8008V42.5312C1090.32 41.6172 1090.46 40.7695 1090.72 39.9883C1090.99 39.1992 1091.37 38.5156 1091.87 37.9375C1092.37 37.3516 1092.98 36.8984 1093.69 36.5781C1094.4 36.25 1095.2 36.0859 1096.08 36.0859C1096.97 36.0859 1097.77 36.25 1098.48 36.5781C1099.2 36.8984 1099.81 37.3516 1100.31 37.9375C1100.82 38.5156 1101.2 39.1992 1101.47 39.9883C1101.73 40.7695 1101.87 41.6172 1101.87 42.5312V42.8008C1101.87 43.7148 1101.73 44.5625 1101.47 45.3438C1101.2 46.125 1100.82 46.8086 1100.31 47.3945C1099.81 47.9727 1099.2 48.4258 1098.49 48.7539C1097.79 49.0742 1096.99 49.2344 1096.1 49.2344C1095.21 49.2344 1094.41 49.0742 1093.7 48.7539C1092.99 48.4258 1092.38 47.9727 1091.87 47.3945C1091.37 46.8086 1090.99 46.125 1090.72 45.3438C1090.46 44.5625 1090.32 43.7148 1090.32 42.8008ZM1092.49 42.5312V42.8008C1092.49 43.4336 1092.57 44.0312 1092.71 44.5938C1092.86 45.1484 1093.09 45.6406 1093.38 46.0703C1093.69 46.5 1094.07 46.8398 1094.52 47.0898C1094.97 47.332 1095.5 47.4531 1096.1 47.4531C1096.7 47.4531 1097.21 47.332 1097.66 47.0898C1098.11 46.8398 1098.49 46.5 1098.79 46.0703C1099.08 45.6406 1099.3 45.1484 1099.45 44.5938C1099.61 44.0312 1099.69 43.4336 1099.69 42.8008V42.5312C1099.69 41.9062 1099.61 41.3164 1099.45 40.7617C1099.3 40.1992 1099.08 39.7031 1098.77 39.2734C1098.48 38.8359 1098.1 38.4922 1097.65 38.2422C1097.2 37.9922 1096.68 37.8672 1096.08 37.8672C1095.48 37.8672 1094.96 37.9922 1094.51 38.2422C1094.06 38.4922 1093.69 38.8359 1093.38 39.2734C1093.09 39.7031 1092.86 40.1992 1092.71 40.7617C1092.57 41.3164 1092.49 41.9062 1092.49 42.5312ZM1106.75 39.0273V49H1104.59V36.3203H1106.64L1106.75 39.0273ZM1106.24 42.1797L1105.34 42.1445C1105.34 41.2773 1105.47 40.4766 1105.72 39.7422C1105.97 39 1106.32 38.3555 1106.78 37.8086C1107.23 37.2617 1107.77 36.8398 1108.39 36.543C1109.03 36.2383 1109.73 36.0859 1110.49 36.0859C1111.12 36.0859 1111.68 36.1719 1112.18 36.3438C1112.68 36.5078 1113.11 36.7734 1113.46 37.1406C1113.82 37.5078 1114.09 37.9844 1114.28 38.5703C1114.46 39.1484 1114.56 39.8555 1114.56 40.6914V49H1112.38V40.668C1112.38 40.0039 1112.28 39.4727 1112.09 39.0742C1111.89 38.668 1111.61 38.375 1111.23 38.1953C1110.86 38.0078 1110.39 37.9141 1109.85 37.9141C1109.31 37.9141 1108.82 38.0273 1108.37 38.2539C1107.93 38.4805 1107.55 38.793 1107.23 39.1914C1106.92 39.5898 1106.68 40.0469 1106.5 40.5625C1106.32 41.0703 1106.24 41.6094 1106.24 42.1797ZM1120.75 49H1118.58V35.2188C1118.58 34.2578 1118.77 33.4453 1119.14 32.7812C1119.52 32.1172 1120.05 31.6133 1120.75 31.2695C1121.44 30.9258 1122.27 30.7539 1123.22 30.7539C1123.78 30.7539 1124.33 30.8242 1124.87 30.9648C1125.41 31.0977 1125.96 31.2656 1126.54 31.4688L1126.17 33.2969C1125.81 33.1562 1125.39 33.0234 1124.92 32.8984C1124.45 32.7656 1123.93 32.6992 1123.37 32.6992C1122.44 32.6992 1121.77 32.9102 1121.36 33.332C1120.95 33.7461 1120.75 34.375 1120.75 35.2188V49ZM1123.34 36.3203V37.9844H1116.57V36.3203H1123.34ZM1127.6 36.3203V49H1125.43V36.3203H1127.6ZM1133.33 38.3125V49H1131.16V36.3203H1133.27L1133.33 38.3125ZM1137.29 36.25L1137.28 38.2656C1137.1 38.2266 1136.93 38.2031 1136.77 38.1953C1136.61 38.1797 1136.43 38.1719 1136.23 38.1719C1135.73 38.1719 1135.29 38.25 1134.9 38.4062C1134.52 38.5625 1134.2 38.7812 1133.93 39.0625C1133.66 39.3438 1133.45 39.6797 1133.3 40.0703C1133.15 40.4531 1133.05 40.875 1133 41.3359L1132.39 41.6875C1132.39 40.9219 1132.47 40.2031 1132.62 39.5312C1132.77 38.8594 1133.01 38.2656 1133.33 37.75C1133.65 37.2266 1134.06 36.8203 1134.55 36.5312C1135.05 36.2344 1135.64 36.0859 1136.33 36.0859C1136.49 36.0859 1136.67 36.1055 1136.87 36.1445C1137.07 36.1758 1137.21 36.2109 1137.29 36.25ZM1141.45 38.8398V49H1139.27V36.3203H1141.34L1141.45 38.8398ZM1141.01 42.1797L1140 42.1445C1140.01 41.2773 1140.12 40.4766 1140.34 39.7422C1140.56 39 1140.88 38.3555 1141.31 37.8086C1141.74 37.2617 1142.28 36.8398 1142.92 36.543C1143.56 36.2383 1144.3 36.0859 1145.14 36.0859C1145.74 36.0859 1146.29 36.1719 1146.79 36.3438C1147.29 36.5078 1147.72 36.7695 1148.09 37.1289C1148.45 37.4883 1148.74 37.9492 1148.94 38.5117C1149.14 39.0742 1149.25 39.7539 1149.25 40.5508V49H1147.08V40.6562C1147.08 39.9922 1146.96 39.4609 1146.74 39.0625C1146.52 38.6641 1146.21 38.375 1145.8 38.1953C1145.39 38.0078 1144.92 37.9141 1144.37 37.9141C1143.73 37.9141 1143.2 38.0273 1142.77 38.2539C1142.34 38.4805 1141.99 38.793 1141.73 39.1914C1141.48 39.5898 1141.29 40.0469 1141.17 40.5625C1141.06 41.0703 1141.01 41.6094 1141.01 42.1797ZM1149.22 40.9844L1147.77 41.4297C1147.78 40.7344 1147.89 40.0664 1148.11 39.4258C1148.34 38.7852 1148.66 38.2148 1149.08 37.7148C1149.51 37.2148 1150.04 36.8203 1150.66 36.5312C1151.29 36.2344 1152 36.0859 1152.81 36.0859C1153.49 36.0859 1154.09 36.1758 1154.61 36.3555C1155.14 36.5352 1155.59 36.8125 1155.95 37.1875C1156.32 37.5547 1156.59 38.0273 1156.78 38.6055C1156.97 39.1836 1157.06 39.8711 1157.06 40.668V49H1154.88V40.6445C1154.88 39.9336 1154.77 39.3828 1154.54 38.9922C1154.32 38.5938 1154.01 38.3164 1153.61 38.1602C1153.21 37.9961 1152.73 37.9141 1152.18 37.9141C1151.7 37.9141 1151.28 37.9961 1150.91 38.1602C1150.54 38.3242 1150.23 38.5508 1149.98 38.8398C1149.73 39.1211 1149.54 39.4453 1149.41 39.8125C1149.29 40.1797 1149.22 40.5703 1149.22 40.9844ZM1167.82 46.832V40.3047C1167.82 39.8047 1167.72 39.3711 1167.52 39.0039C1167.32 38.6289 1167.02 38.3398 1166.62 38.1367C1166.23 37.9336 1165.73 37.832 1165.15 37.832C1164.6 37.832 1164.12 37.9258 1163.71 38.1133C1163.3 38.3008 1162.98 38.5469 1162.75 38.8516C1162.52 39.1562 1162.41 39.4844 1162.41 39.8359H1160.24C1160.24 39.3828 1160.36 38.9336 1160.59 38.4883C1160.82 38.043 1161.16 37.6406 1161.6 37.2812C1162.04 36.9141 1162.57 36.625 1163.19 36.4141C1163.82 36.1953 1164.51 36.0859 1165.28 36.0859C1166.2 36.0859 1167.01 36.2422 1167.71 36.5547C1168.43 36.8672 1168.98 37.3398 1169.38 37.9727C1169.79 38.5977 1169.99 39.3828 1169.99 40.3281V46.2344C1169.99 46.6562 1170.02 47.1055 1170.09 47.582C1170.17 48.0586 1170.29 48.4688 1170.43 48.8125V49H1168.17C1168.06 48.75 1167.98 48.418 1167.91 48.0039C1167.85 47.582 1167.82 47.1914 1167.82 46.832ZM1168.2 41.3125L1168.22 42.8359H1166.03C1165.41 42.8359 1164.86 42.8867 1164.38 42.9883C1163.89 43.082 1163.48 43.2266 1163.16 43.4219C1162.83 43.6172 1162.58 43.8633 1162.41 44.1602C1162.23 44.4492 1162.15 44.7891 1162.15 45.1797C1162.15 45.5781 1162.24 45.9414 1162.42 46.2695C1162.6 46.5977 1162.87 46.8594 1163.23 47.0547C1163.59 47.2422 1164.04 47.3359 1164.57 47.3359C1165.24 47.3359 1165.82 47.1953 1166.33 46.9141C1166.84 46.6328 1167.24 46.2891 1167.54 45.8828C1167.84 45.4766 1168.01 45.082 1168.03 44.6992L1168.96 45.7422C1168.9 46.0703 1168.75 46.4336 1168.51 46.832C1168.27 47.2305 1167.95 47.6133 1167.54 47.9805C1167.14 48.3398 1166.66 48.6406 1166.11 48.8828C1165.56 49.1172 1164.95 49.2344 1164.26 49.2344C1163.4 49.2344 1162.64 49.0664 1162 48.7305C1161.36 48.3945 1160.86 47.9453 1160.5 47.3828C1160.14 46.8125 1159.97 46.1758 1159.97 45.4727C1159.97 44.793 1160.1 44.1953 1160.37 43.6797C1160.63 43.1562 1161.02 42.7227 1161.52 42.3789C1162.02 42.0273 1162.62 41.7617 1163.32 41.582C1164.02 41.4023 1164.81 41.3125 1165.68 41.3125H1168.2ZM1178.71 36.3203V37.9844H1171.85V36.3203H1178.71ZM1174.17 33.2383H1176.34V45.8594C1176.34 46.2891 1176.41 46.6133 1176.54 46.832C1176.67 47.0508 1176.84 47.1953 1177.05 47.2656C1177.27 47.3359 1177.49 47.3711 1177.73 47.3711C1177.91 47.3711 1178.1 47.3555 1178.3 47.3242C1178.5 47.2852 1178.65 47.2539 1178.75 47.2305L1178.77 49C1178.59 49.0547 1178.37 49.1055 1178.09 49.1523C1177.81 49.207 1177.48 49.2344 1177.09 49.2344C1176.56 49.2344 1176.07 49.1289 1175.62 48.918C1175.18 48.707 1174.82 48.3555 1174.56 47.8633C1174.3 47.3633 1174.17 46.6914 1174.17 45.8477V33.2383ZM1183.61 36.3203V49H1181.43V36.3203H1183.61ZM1181.26 32.957C1181.26 32.6055 1181.37 32.3086 1181.58 32.0664C1181.8 31.8242 1182.12 31.7031 1182.54 31.7031C1182.95 31.7031 1183.27 31.8242 1183.49 32.0664C1183.71 32.3086 1183.83 32.6055 1183.83 32.957C1183.83 33.293 1183.71 33.582 1183.49 33.8242C1183.27 34.0586 1182.95 34.1758 1182.54 34.1758C1182.12 34.1758 1181.8 34.0586 1181.58 33.8242C1181.37 33.582 1181.26 33.293 1181.26 32.957ZM1186.51 42.8008V42.5312C1186.51 41.6172 1186.64 40.7695 1186.91 39.9883C1187.18 39.1992 1187.56 38.5156 1188.06 37.9375C1188.56 37.3516 1189.16 36.8984 1189.88 36.5781C1190.59 36.25 1191.38 36.0859 1192.27 36.0859C1193.16 36.0859 1193.96 36.25 1194.67 36.5781C1195.39 36.8984 1196 37.3516 1196.5 37.9375C1197 38.5156 1197.39 39.1992 1197.66 39.9883C1197.92 40.7695 1198.05 41.6172 1198.05 42.5312V42.8008C1198.05 43.7148 1197.92 44.5625 1197.66 45.3438C1197.39 46.125 1197 46.8086 1196.5 47.3945C1196 47.9727 1195.39 48.4258 1194.68 48.7539C1193.98 49.0742 1193.18 49.2344 1192.29 49.2344C1191.4 49.2344 1190.6 49.0742 1189.89 48.7539C1189.18 48.4258 1188.57 47.9727 1188.06 47.3945C1187.56 46.8086 1187.18 46.125 1186.91 45.3438C1186.64 44.5625 1186.51 43.7148 1186.51 42.8008ZM1188.68 42.5312V42.8008C1188.68 43.4336 1188.75 44.0312 1188.9 44.5938C1189.05 45.1484 1189.27 45.6406 1189.57 46.0703C1189.88 46.5 1190.25 46.8398 1190.71 47.0898C1191.16 47.332 1191.69 47.4531 1192.29 47.4531C1192.88 47.4531 1193.4 47.332 1193.85 47.0898C1194.3 46.8398 1194.68 46.5 1194.97 46.0703C1195.27 45.6406 1195.49 45.1484 1195.64 44.5938C1195.8 44.0312 1195.88 43.4336 1195.88 42.8008V42.5312C1195.88 41.9062 1195.8 41.3164 1195.64 40.7617C1195.49 40.1992 1195.27 39.7031 1194.96 39.2734C1194.66 38.8359 1194.29 38.4922 1193.84 38.2422C1193.39 37.9922 1192.87 37.8672 1192.27 37.8672C1191.67 37.8672 1191.15 37.9922 1190.7 38.2422C1190.25 38.4922 1189.88 38.8359 1189.57 39.2734C1189.27 39.7031 1189.05 40.1992 1188.9 40.7617C1188.75 41.3164 1188.68 41.9062 1188.68 42.5312ZM1202.94 39.0273V49H1200.77V36.3203H1202.82L1202.94 39.0273ZM1202.43 42.1797L1201.52 42.1445C1201.53 41.2773 1201.66 40.4766 1201.91 39.7422C1202.16 39 1202.51 38.3555 1202.96 37.8086C1203.42 37.2617 1203.96 36.8398 1204.58 36.543C1205.21 36.2383 1205.91 36.0859 1206.68 36.0859C1207.3 36.0859 1207.87 36.1719 1208.37 36.3438C1208.87 36.5078 1209.29 36.7734 1209.64 37.1406C1210 37.5078 1210.28 37.9844 1210.46 38.5703C1210.65 39.1484 1210.75 39.8555 1210.75 40.6914V49H1208.57V40.668C1208.57 40.0039 1208.47 39.4727 1208.27 39.0742C1208.08 38.668 1207.79 38.375 1207.42 38.1953C1207.04 38.0078 1206.58 37.9141 1206.04 37.9141C1205.5 37.9141 1205 38.0273 1204.56 38.2539C1204.12 38.4805 1203.74 38.793 1203.42 39.1914C1203.11 39.5898 1202.86 40.0469 1202.68 40.5625C1202.51 41.0703 1202.43 41.6094 1202.43 42.1797Z" fill="white"/>
<path d="M240 40L340 40" stroke="black" stroke-width="2"/>
<path d="M317 16L341 40L317 64" stroke="black" stroke-width="2"/>
<path d="M581 40L681 40" stroke="black" stroke-width="2"/>
<path d="M658 16L682 40L658 64" stroke="black" stroke-width="2"/>
<path d="M922 40L1022 40" stroke="black" stroke-width="2"/>
<path d="M999 16L1023 40L999 64" stroke="black" stroke-width="2"/>
</svg>
