<svg id="Layer_1" data-name="Layer 1" xmlns="http://www.w3.org/2000/svg" viewBox="0 0 71 47.23"><defs><style>.cls-1{fill:#020202;}</style></defs><title>ap_logo</title><path class="cls-1" d="M56.61,11.92H48.8l-9.51-.05V2.17h20.3q13.59,0,13.59,10.57v15q0,10.53-13.59,10.53H48.8V49.4l-9.51-9.94V28.56l14.55.05h4.4q5,0,5-2.57V14.83q0-2.91-5-2.91Z" transform="translate(-2.18 -2.17)"/><path class="cls-1" d="M30.69,20.49a6.94,6.94,0,0,1,6-6.87V2.17H15.76Q2.17,2.17,2.18,12.7v15q0,10.58,13.58,10.57H34.85L25.1,28.2l-8.37.31c-3.36,0-5.05-1-5.05-2.91V14.39c0-1.71,1.69-2.57,5.05-2.57h10V26.5l9.89,10.2V27.35A6.93,6.93,0,0,1,30.69,20.49Z" transform="translate(-2.18 -2.17)"/><path class="cls-1" d="M42.05,18.19a1.88,1.88,0,0,1-2.85-2.43,5,5,0,1,0,3.43,4.73A4.93,4.93,0,0,0,42.05,18.19Zm-3.62,2.49a1,1,0,1,1,1-1A1,1,0,0,1,38.43,20.68Z" transform="translate(-2.18 -2.17)"/></svg>